<?xml version="1.0" encoding="UTF-8" standalone="no"?>
<svg
   viewBox="0 0 48 48"
   version="1.1"
   id="svg4"
   sodipodi:docname="Cluster.svg"
   inkscape:version="1.2.1 (9c6d41e410, 2022-07-14)"
   xmlns:inkscape="http://www.inkscape.org/namespaces/inkscape"
   xmlns:sodipodi="http://sodipodi.sourceforge.net/DTD/sodipodi-0.dtd"
   xmlns="http://www.w3.org/2000/svg"
   xmlns:svg="http://www.w3.org/2000/svg">
  <defs
     id="defs8" />
  <sodipodi:namedview
     id="namedview6"
     pagecolor="#ffffff"
     bordercolor="#999999"
     borderopacity="1"
     inkscape:showpageshadow="0"
     inkscape:pageopacity="0"
     inkscape:pagecheckerboard="0"
     inkscape:deskcolor="#d1d1d1"
     showgrid="false"
     inkscape:zoom="9.7916667"
     inkscape:cx="19.557447"
     inkscape:cy="24"
     inkscape:window-width="1366"
     inkscape:window-height="699"
     inkscape:window-x="0"
     inkscape:window-y="0"
     inkscape:window-maximized="1"
     inkscape:current-layer="svg4" />
  <path
     fill="#418fde"
     d="M48 8a7.995 7.995 0 0 0-15.979-.418l-18.004 6.157a8.003 8.003 0 1 0-2.473 12.425L24.43 37.427a7.999 7.999 0 1 0 12.3-3.868l4.448-17.655A7.995 7.995 0 0 0 48 8zM28.352 32.886L15.53 21.68a7.96 7.96 0 0 0 .45-2.27l17.997-6.156a8.03 8.03 0 0 0 1.369 1.244l-4.43 17.584a7.94 7.94 0 0 0-2.564.804z"
     data-name="Layer 2"
     id="path2"
     style="fill:#f1f3f5;fill-opacity:1" />
</svg>
