<?xml version="1.0" encoding="UTF-8" standalone="no"?>
<svg
   viewBox="0 0 48 48"
   version="1.1"
   id="svg4"
   sodipodi:docname="CP.svg"
   inkscape:version="1.2.1 (9c6d41e410, 2022-07-14)"
   xmlns:inkscape="http://www.inkscape.org/namespaces/inkscape"
   xmlns:sodipodi="http://sodipodi.sourceforge.net/DTD/sodipodi-0.dtd"
   xmlns="http://www.w3.org/2000/svg"
   xmlns:svg="http://www.w3.org/2000/svg">
  <defs
     id="defs8" />
  <sodipodi:namedview
     id="namedview6"
     pagecolor="#ffffff"
     bordercolor="#999999"
     borderopacity="1"
     inkscape:showpageshadow="0"
     inkscape:pageopacity="0"
     inkscape:pagecheckerboard="0"
     inkscape:deskcolor="#d1d1d1"
     showgrid="false"
     inkscape:zoom="9.7916667"
     inkscape:cx="24.255319"
     inkscape:cy="24"
     inkscape:window-width="1366"
     inkscape:window-height="699"
     inkscape:window-x="0"
     inkscape:window-y="0"
     inkscape:window-maximized="1"
     inkscape:current-layer="svg4" />
  <path
     fill="#418fde"
     d="M26.5 31c-.8 0-1.5-.7-1.5-1.5V22h-2v7.5c0 .8-.7 1.5-1.5 1.5s-1.5-.7-1.5-1.5V14.3c-1.1.8-1.8 2-2 3.4-.1.8-.9 1.4-1.7 1.3s-1.4-.9-1.3-1.7c.7-4.3 4.6-7.5 9-7.3 4.4-.2 8.2 2.9 9 7.3.1.8-.5 1.6-1.3 1.7h-.2c-.7 0-1.4-.6-1.5-1.3-.2-1.4-.9-2.6-2-3.4v15.2c0 .8-.7 1.5-1.5 1.5zM24 8c2.2 0 4-1.8 4-4s-1.8-4-4-4-4 1.8-4 4 1.8 4 4 4zM11.6 25.6c-.8-.8-2.1-.8-2.9 0-.8.8-.8 2.2 0 3l3.8 3.6c.5.5.5 1.3 0 1.7-.5.5-1.2.5-1.7 0L6 29V13c0-1.7-1.3-3-3-3s-3 1.3-3 3v17.4c0 .8.3 1.6.9 2.1L12 44v4h9V38c.1-1.8-.6-3.6-1.8-4.9l-7.6-7.5zM45 10c-1.7 0-3 1.3-3 3v16l-4.7 5c-.5.5-1.2.5-1.7 0s-.5-1.3 0-1.7l3.8-3.6c.8-.8.8-2.2 0-3-.8-.8-2.1-.8-2.9 0l-7.6 7.5c-1.3 1.3-1.9 3-1.8 4.9v10h9v-4l11.1-11.5c.6-.6.9-1.3.9-2.1V13c-.1-1.7-1.4-3-3.1-3z"
     id="path2"
     style="fill:#f1f3f5;fill-opacity:1" />
</svg>
