<?xml version="1.0" encoding="UTF-8" standalone="no"?>
<svg
   viewBox="0 0 48 48"
   version="1.1"
   id="svg1419"
   sodipodi:docname="Protection.svg"
   inkscape:version="1.2.1 (9c6d41e410, 2022-07-14)"
   xmlns:inkscape="http://www.inkscape.org/namespaces/inkscape"
   xmlns:sodipodi="http://sodipodi.sourceforge.net/DTD/sodipodi-0.dtd"
   xmlns="http://www.w3.org/2000/svg"
   xmlns:svg="http://www.w3.org/2000/svg">
  <defs
     id="defs1423" />
  <sodipodi:namedview
     id="namedview1421"
     pagecolor="#ffffff"
     bordercolor="#999999"
     borderopacity="1"
     inkscape:showpageshadow="0"
     inkscape:pageopacity="0"
     inkscape:pagecheckerboard="0"
     inkscape:deskcolor="#d1d1d1"
     showgrid="false"
     inkscape:zoom="9.7916667"
     inkscape:cx="24.255319"
     inkscape:cy="24"
     inkscape:window-width="1366"
     inkscape:window-height="699"
     inkscape:window-x="0"
     inkscape:window-y="0"
     inkscape:window-maximized="1"
     inkscape:current-layer="svg1419" />
  <g
     fill="#418fde"
     data-name="Layer 2"
     id="g1417"
     style="fill:#f1f3f5;fill-opacity:1">
    <path
       d="M45 5a3.018 3.018 0 0 0-3 3v16l-4.806 4.844a.973.973 0 0 1-1.604.173 1.25 1.25 0 0 1 0-1.747l4.056-4.127a2.148 2.148 0 0 0 0-3 2.06 2.06 0 0 0-2.948 0L28.83 28.15A6.396 6.396 0 0 0 27.017 33H27v15h9v-9.655a6.227 6.227 0 0 0 1.665-1.207l9.47-9.616A3.027 3.027 0 0 0 48 25.4V8a3.018 3.018 0 0 0-3-3zM19.17 28.149l-7.868-8.006a2.06 2.06 0 0 0-2.948 0 2.148 2.148 0 0 0 0 3l4.056 4.127a1.25 1.25 0 0 1 0 1.747 1.2 1.2 0 0 1-1.717 0L6 24V8a3.018 3.018 0 0 0-3-3 3.018 3.018 0 0 0-3 3v17.4a3.027 3.027 0 0 0 .866 2.122l9.47 9.616A6.227 6.227 0 0 0 12 38.345V48h9V33h-.017a6.396 6.396 0 0 0-1.813-4.851z"
       id="path1413"
       style="fill:#f1f3f5;fill-opacity:1" />
    <circle
       cx="24"
       cy="9"
       r="9"
       id="circle1415"
       style="fill:#f1f3f5;fill-opacity:1" />
  </g>
</svg>
