<?xml version="1.0" encoding="UTF-8" standalone="no"?>
<svg
   viewBox="0 0 48 48"
   version="1.1"
   id="svg6"
   sodipodi:docname="WASH.svg"
   inkscape:version="1.2.1 (9c6d41e410, 2022-07-14)"
   xmlns:inkscape="http://www.inkscape.org/namespaces/inkscape"
   xmlns:sodipodi="http://sodipodi.sourceforge.net/DTD/sodipodi-0.dtd"
   xmlns="http://www.w3.org/2000/svg"
   xmlns:svg="http://www.w3.org/2000/svg">
  <defs
     id="defs10" />
  <sodipodi:namedview
     id="namedview8"
     pagecolor="#ffffff"
     bordercolor="#999999"
     borderopacity="1"
     inkscape:showpageshadow="0"
     inkscape:pageopacity="0"
     inkscape:pagecheckerboard="0"
     inkscape:deskcolor="#d1d1d1"
     showgrid="false"
     inkscape:zoom="9.7916667"
     inkscape:cx="24.255319"
     inkscape:cy="24"
     inkscape:window-width="1366"
     inkscape:window-height="699"
     inkscape:window-x="0"
     inkscape:window-y="0"
     inkscape:window-maximized="1"
     inkscape:current-layer="svg6" />
  <g
     fill="#418fde"
     data-name="Layer 2"
     id="g4"
     style="fill:#f1f3f5;fill-opacity:1">
    <path
       d="M42.32 31.166C43.564 32.86 48 39.117 48 41.976a6 6 0 1 1-12 0c0-2.859 4.436-9.116 5.68-10.81a.392.392 0 0 1 .64 0zM2 1h3a2 2 0 0 1 2 2v5h12V3h-4.5a1.5 1.5 0 0 1 0-3h14a1.5 1.5 0 0 1 0 3H24v5h10.147A11.866 11.866 0 0 1 46 19.853V22h1a1 1 0 0 1 1 1v3a1 1 0 0 1-1 1H37a1 1 0 0 1-1-1v-3a1 1 0 0 1 1-1h1v-2.147A3.857 3.857 0 0 0 34.147 16H7v5a2 2 0 0 1-2 2H2a2 2 0 0 1-2-2V3a2 2 0 0 1 2-2z"
       id="path2"
       style="fill:#f1f3f5;fill-opacity:1" />
  </g>
</svg>
